<?xml version="1.0" encoding="UTF-8"?><svg id="Calque_1" xmlns="http://www.w3.org/2000/svg" viewBox="0 0 2710.706 571.568"><defs><style>.cls-1{fill:#f8f5f0;}</style></defs><path class="cls-1" d="M1127.458,415.88c-11.655,62.256-51.378,96.54-97.317,96.54-94.16,0-111.303-86.44-111.303-156.465,0-72.405,27.243-153.357,112.128-153.357,57.594,0,87.945,32.682,96.492,87.168h66.189c-.631-8.498-1.797-17.093-3.545-25.64-12.626-62.742-55.214-123.006-149.035-123.006-134.467,0-195.217,100.085-195.411,225.908v.583c0,9.566.437,18.89,1.311,28.02,10.004,103.047,75.756,175.938,180.843,175.938,102.61,0,146.267-67.597,160.884-127.62,2.379-9.664,3.982-19.133,4.953-28.068h-66.189Z"/><path class="cls-1" d="M1363.272,141.119c-91.393,0-147.772,54.243-173.17,123.006-3.108,8.352-5.779,16.899-7.916,25.64-5.439,21.561-8.061,43.948-8.061,66.189,0,20.056,2.137,40.306,6.556,59.925,2.137,9.566,4.808,18.939,8.013,28.068,24.718,70.56,81.486,126.842,174.578,126.842,129.999,0,189.147-109.749,189.147-214.836s-59.148-214.836-189.147-214.836ZM1363.272,511.643c-98.046,0-118.296-101.202-118.296-155.688s20.25-155.688,118.296-155.688,118.344,101.202,118.344,155.688-20.25,155.688-118.344,155.688Z"/><path class="cls-1" d="M1742.391,141.119c-51.378,0-87.168,31.905-114.411,79.398h-1.554v-67.743h-64.635v407.09h68.52v-236.64c0-59.148,40.452-108.972,104.31-108.972h25.689v-70.803c-5.487-1.554-9.373-2.331-17.919-2.331Z"/><path class="cls-1" d="M1955.09,141.119c-70.025,0-108.195,47.445-122.958,69.249h-1.554v-69.151h-64.635v418.648h68.52v-221.829c0-110.526,68.472-135.438,107.418-135.438,66.918,0,87.168,35.79,87.168,106.641v250.625h68.52v-277.091c0-115.965-79.398-141.654-142.479-141.654Z"/><path class="cls-1" d="M2311.871,512.42c-85.565,0-128.736-49.047-128.736-133.932h323.468c0-143.985-62.644-237.368-190.507-237.368-146.51,0-212.553,100.376-212.553,226.491,0,117.567,73.668,203.958,198.131,203.958,71.142,0,99.939-15.588,120.287-28.02,55.846-34.284,76.193-91.878,78.718-111.303h-74.493c-2.574,30.351-44.045,80.175-114.314,80.175ZM2305.898,202.598c90.615,0,119.413,58.371,123.686,121.404h-246.449c0-63.033,54.195-121.404,122.763-121.404Z"/><path class="cls-1" d="M2692.786,141.119c-51.378,0-87.168,31.905-114.411,79.398h-1.554v-67.743h-64.587v407.09h68.472v-236.64c0-59.148,40.5-108.972,104.31-108.972h25.689v-70.803c-5.439-1.554-9.324-2.331-17.919-2.331Z"/><path class="cls-1" d="M871.053,332.986c-1.457,1.068-10.926,14.568-25.398,34.042-35.207,47.396-99.988,130.242-149.86,155.154-15.491,7.721-30.108,13.694-45.162,15.637-19.23,2.525-35.158-1.117-47.882-10.78-12.723-9.664-21.901-23.358-27.631-40.938-5.731-17.676-7.916-38.509-6.605-62.595,1.165-21.513,4.856-43.754,11.218-66.675,3.351-5.293,6.75-10.586,10.101-15.879,13.888-2.671,26.563-5.051,38.218-7.236,16.122-2.962,31.905-6.216,47.445-9.712,15.637-3.448,31.274-7.187,47.153-11.12,15.782-4.031,33.313-9.178,52.495-15.637,28.069-8.984,47.687-22.144,58.759-39.529,11.218-17.336,14.957-34.722,11.315-52.155-3.594-17.385-14.374-32.488-32.293-45.454-17.919-12.869-42.151-19.327-72.745-19.327-22.873,0-45.162,5.051-66.966,15.248-21.804,10.198-42.151,24.329-61.139,42.443-18.939,18.162-35.644,40.015-50.213,65.558-14.471,25.641-26.175,53.806-35.013,84.594-9.518,32.148-14.666,61.528-15.443,88.188-4.468,7.333-8.887,14.617-13.597,21.804-2.477,3.691-5.002,7.236-7.527,10.878-2.962,4.176-5.876,8.401-8.547,12.82-5.05,8.401-11.315,16.122-18.453,23.018-.777.729-1.505,1.408-2.282,2.137-2.623,2.234-5.536,4.225-8.887,5.293-4.468,1.457-9.178.485-12.383-1.991-2.525-2.039-4.128-4.953-3.982-8.644,0-.389,0-.729.049-1.069.097-.389.146-.777.194-1.117.097-.874.34-1.845.583-2.719.243-1.069.485-2.185.729-3.351,3.156-12.918,7.284-28.069,12.48-45.453,3.642-12.238,7.673-25.106,12.092-38.558,1.942-5.633,3.836-11.461,5.827-17.288,6.75-19.862,13.112-39.189,19.085-58.08,5.924-18.89,11.363-36.13,16.317-51.815,4.953-15.637,8.401-28.166,10.538-37.635,1.165-6.216,2.039-12.189,2.671-17.871,2.768-24.524.583-43.608-6.604-57.351-8.838-16.899-26.466-25.106-52.932-24.572-7.527.243-15.199,2.04-23.018,5.342-7.527,3.205-15.151,7.916-22.969,14.083-.777.534-1.505,1.166-2.283,1.797-16.559,13.694-32.924,31.176-49.047,52.495-16.074,21.415-31.662,45.065-46.667,71.191-15.054,26.077-28.943,51.524-41.666,76.338-12.674,24.864-23.747,47.59-33.07,68.18,0,.049-.049.146-.097.194,13.5-52.398,27.34-104.407,41.714-155.931C305.41,186.816,331.973,93.821,359.459,0,350.669,0,341.831.825,333.042,2.525c-8.838,1.797-17.676,3.642-26.466,5.633-8.838,1.943-17.433,3.982-25.737,5.973-8.256,1.943-16.365,3.448-24.087,4.468l-7.818,10.392c3.108,1.02,6.75,1.117,10.878.389,4.177-.728,8.353-1.311,12.48-1.845,4.177-.485,7.77-.485,10.926,0,3.108.534,5.196,2.234,6.216,5.196-1.02,5.439-3.885,17.385-8.595,35.741-4.662,18.405-10.489,41.374-17.531,68.909-6.944,27.583-14.86,58.517-23.747,92.801-5.05,19.764-10.344,40.015-15.734,60.799-24.766,35.887-55.554,82.166-78.572,118.296-11.024,17.336-20.833,35.255-32.148,52.398-5.245,8.012-11.024,15.54-15.977,23.698-5.05,8.401-11.315,16.122-18.502,23.067-3.205,3.059-6.75,6.07-11.12,7.381-4.468,1.457-9.227.486-12.48-1.991-2.477-1.991-4.079-4.953-3.933-8.644.097-3.059,1.165-6.07,2.137-8.984,4.565-13.16,8.838-26.077,12.383-39.577,2.331-8.935,5.099-19.23,8.158-30.934,3.157-11.606,6.507-23.795,10.149-36.469,3.593-12.675,7.041-24.718,10.101-36.13l55.311-180.309h70.803l4.662-17.142h-70.074l26.466-87.896-10.878.728c-7.236,16.462-17.093,30.205-29.525,41.374-12.48,11.169-25.641,20.153-39.384,26.806-13.694,6.75-27.097,11.606-40.063,14.52-12.966,2.962-23.649,4.468-31.905,4.468l-4.662,17.142c4.128,0,9.226-.097,15.151-.389,5.973-.194,12.092-.291,18.308-.291s11.946.194,17.142.68c5.147.534,8.838,1.748,10.878,3.739,1.02,7.916.097,20.396-2.671,37.295-2.914,16.851-7.041,36.227-12.48,58.079-5.487,21.853-11.558,44.822-18.308,68.86-6.75,24.135-13.5,47.493-20.25,70.074-6.75,22.63-13.014,43.22-18.696,61.819-5.73,18.599-9.858,33.167-12.48,43.559-1.505,7.479-1.797,14.228-.729,20.153,1.02,5.973,3.059,10.926,6.216,14.908,59.148,50.844,112.614-80.758,140.148-116.207,21.804-33.799,44.142-68.957,66.141-103.582-.485,1.942-1.02,3.933-1.554,5.973-9.906,37.247-19.861,74.833-29.962,112.857-10.149,38.024-19.862,74.348-29.234,109.118h54.535c4.565-18.842,9.13-37.586,13.791-56.283,1.214-2.622,2.428-5.342,3.739-8.158,11.655-25.543,24.912-52.883,39.675-81.923,14.811-29.088,30.594-58.565,47.493-88.673,16.802-30.011,33.702-56.962,50.552-80.806,16.899-23.844,33.362-43.219,49.484-58.128,7.867-7.284,15.442-12.772,22.533-16.317,7.43-3.788,14.423-5.536,21.075-5.293,7.09.291,11.946,3.205,14.763,8.887.388.728.68,1.505,1.068,2.477,1.36,3.933,1.943,9.032,1.651,15.103-.777,17.142-5.876,43.317-15.151,78.621-4.856,17.919-10.247,36.032-16.22,54.243-.389,1.408-.874,2.865-1.311,4.225-6.507,19.619-13.111,38.995-19.861,58.08-6.75,19.133-13.5,38.412-20.25,57.788-6.75,19.327-13.209,38.703-19.425,58.079-2.623,8.45-3.691,16.268-3.157,23.455.534,7.236,2.234,13.306,5.05,18.259,2.865,4.953,6.75,8.79,11.703,11.509,4.905,2.817,10.489,4.128,16.754,4.128,39.675,9.518,75.562-52.543,101.056-95.763,1.457,17.433,5.002,33.022,10.635,46.57,8.061,19.425,20.493,34.187,37.344,44.337,16.851,10.198,38.023,14.568,63.47,13.063,24.912-1.505,47.833-7.916,68.909-18.987,52.009-27.34,116.111-101.445,154.668-152.289,20.736-27.34,34.139-47.978,34.333-50.989.68-11.946-3.982-16.317-10.247-11.655ZM595.322,310.259c.923-2.428,1.943-4.953,2.914-7.43,4.468-11.218,9.47-22.533,15.006-33.896,6.75-13.937,14.277-27.34,22.581-40.257,8.352-12.918,17.531-24.475,27.631-34.673,10.149-10.149,21.124-18.356,33.071-24.523,11.946-6.265,24.912-9.81,38.946-10.829,14.034-.971,25.009.486,33.119,4.468,8.013,3.933,13.986,8.984,17.871,14.908,3.885,5.973,6.216,12.432,7.041,19.328.729,6.993.631,12.917-.437,17.871-1.02,8.984-3.788,17.579-8.158,25.737-4.419,8.207-9.761,15.782-15.977,22.727-6.216,6.993-13.209,12.82-21.027,17.482-7.721,4.759-15.831,8.352-24.086,10.829l-124.609,34.139-10.732,2.962c2.136-6.07,4.419-12.383,6.847-18.842Z"/></svg>